# xmcd
#
# Track frame offsets: 
#        150
#        11362
#        23887
#        34417
#        45017
#        55137
#        66867
#        77220
#        90555
#        101730
#        111790
#        122602
#        133987
#        146910
#        157380
#        169535
#        180370
#        189865
#        200267
#        209382
#        221160
#        229760
#        240732
#        249805
#        258672
#        268045
#        277755
#        288430
#
# Disc length: 4001 seconds
#
# Revision: 2
# Processed by: cddbd v1.5.2PL0 Copyright (c) Steve Scherf et al.
# Submitted via: ExactAudioCopy v0.95b4
#
DISCID=900f9f1c
DTITLE=Sheb Wooley - That's My Pa - disc 2
DYEAR=1900
DGENRE=
TTITLE0=Down In The Toolies - 1952
TTITLE1=What'cha Gonna Do - 1985
TTITLE2=Backroom Boogie (instrumental) - 1952
TTITLE3=You Never Can Tell - 1952
TTITLE4=Goodbye Texas, Hello Tennessee - 1953
TTITLE5=I'll Return The Letters - 1953
TTITLE6=A Cowboy Ought To Be Single - 1952
TTITLE7=Knew I Had Lost - 1954
TTITLE8=Don't Stop Kissing Me Goodnight - 1954
TTITLE9=Texas Tango - 1953
TTITLE10=Love Is Just Another Merry-Go-Round - 1953
TTITLE11=White Lightnin' - 1954
TTITLE12=A Fool About You - 1954
TTITLE13=Panama Pete - 1945
TTITLE14=Blue Guitar - 1954
TTITLE15=I Go Outa My Mind - 1954
TTITLE16=38-24-35 - 1955
TTITLE17=I Flipped - 1955
TTITLE18=Hill Billy Mambo - 1954
TTITLE19=Listening For Your Footsteps - 1955
TTITLE20=Speak Of The Devil - 1955
TTITLE21=Love At First Sight - 1955
TTITLE22=Love Is A Fever - 1955
TTITLE23=Humdinger - 1955
TTITLE24=It Takes A Heap Of Livin' - 1955 
TTITLE25=Tom, The Boogie Woogie Tom Cat - 1955
TTITLE26=First Day Of School - 1956
TTITLE27=the lonely man 1956
EXTD=
EXTT0=
EXTT1=
EXTT2=
EXTT3=
EXTT4=
EXTT5=
EXTT6=
EXTT7=
EXTT8=
EXTT9=
EXTT10=
EXTT11=
EXTT12=
EXTT13=
EXTT14=
EXTT15=
EXTT16=
EXTT17=
EXTT18=
EXTT19=
EXTT20=
EXTT21=
EXTT22=
EXTT23=
EXTT24=
EXTT25=
EXTT26=
EXTT27=
PLAYORDER=
